<?xml version="1.0" encoding="utf-8" standalone="no"?>
<!DOCTYPE svg PUBLIC "-//W3C//DTD SVG 1.1//EN"
  "http://www.w3.org/Graphics/SVG/1.1/DTD/svg11.dtd">
<svg xmlns:xlink="http://www.w3.org/1999/xlink" width="1060.839062pt" height="340.321094pt" viewBox="0 0 1060.839062 340.321094" xmlns="http://www.w3.org/2000/svg" version="1.1">
 <metadata>
  <rdf:RDF xmlns:dc="http://purl.org/dc/elements/1.1/" xmlns:cc="http://creativecommons.org/ns#" xmlns:rdf="http://www.w3.org/1999/02/22-rdf-syntax-ns#">
   <cc:Work>
    <dc:type rdf:resource="http://purl.org/dc/dcmitype/StillImage"/>
    <dc:date>1980-01-01T00:00:00+00:00</dc:date>
    <dc:format>image/svg+xml</dc:format>
    <dc:creator>
     <cc:Agent>
      <dc:title>Matplotlib v3.10.5, https://matplotlib.org/</dc:title>
     </cc:Agent>
    </dc:creator>
   </cc:Work>
  </rdf:RDF>
 </metadata>
 <defs>
  <style type="text/css">*{stroke-linejoin: round; stroke-linecap: butt}</style>
 </defs>
 <g id="figure_1">
  <g id="patch_1">
   <path d="M 0 340.321094 
L 1060.839062 340.321094 
L 1060.839062 0 
L 0 0 
z
" style="fill: #ffffff"/>
  </g>
  <g id="axes_1">
   <g id="patch_2">
    <path d="M 74.189063 296.957969 
L 338.199062 296.957969 
L 338.199062 23.077969 
L 74.189063 23.077969 
z
" style="fill: #ffffff"/>
   </g>
   <g id="patch_3">
    <path d="M 86.189517 296.957969 
L 176.192926 296.957969 
L 176.192926 62.911918 
L 86.189517 62.911918 
z
" clip-path="url(#p9e308c7b60)" style="fill: #ff5555; opacity: 0.7; stroke: #000000; stroke-linejoin: miter"/>
   </g>
   <g id="patch_4">
    <path d="M 236.195199 296.957969 
L 326.198608 296.957969 
L 326.198608 36.119874 
L 236.195199 36.119874 
z
" clip-path="url(#p9e308c7b60)" style="fill: #ff5555; opacity: 0.7; stroke: #000000; stroke-linejoin: miter"/>
   </g>
   <g id="matplotlib.axis_1">
    <g id="xtick_1">
     <g id="line2d_1">
      <defs>
       <path id="m91ab744c8d" d="M 0 0 
L 0 3.5 
" style="stroke: #000000; stroke-width: 2"/>
      </defs>
      <g>
       <use xlink:href="#m91ab744c8d" x="131.191222" y="296.957969" style="stroke: #000000; stroke-width: 2"/>
      </g>
     </g>
     <g id="text_1">
      <!-- L0 -->
      <g transform="translate(121.86044 314.595781) scale(0.14 -0.14)">
       <defs>
        <path id="DejaVuSans-Bold-4c" d="M 588 4666 
L 1791 4666 
L 1791 909 
L 3903 909 
L 3903 0 
L 588 0 
L 588 4666 
z
" transform="scale(0.015625)"/>
        <path id="DejaVuSans-Bold-30" d="M 2944 2338 
Q 2944 3213 2780 3570 
Q 2616 3928 2228 3928 
Q 1841 3928 1675 3570 
Q 1509 3213 1509 2338 
Q 1509 1453 1675 1090 
Q 1841 728 2228 728 
Q 2613 728 2778 1090 
Q 2944 1453 2944 2338 
z
M 4147 2328 
Q 4147 1169 3647 539 
Q 3147 -91 2228 -91 
Q 1306 -91 806 539 
Q 306 1169 306 2328 
Q 306 3491 806 4120 
Q 1306 4750 2228 4750 
Q 3147 4750 3647 4120 
Q 4147 3491 4147 2328 
z
" transform="scale(0.015625)"/>
       </defs>
       <use xlink:href="#DejaVuSans-Bold-4c"/>
       <use xlink:href="#DejaVuSans-Bold-30" transform="translate(63.720703 0)"/>
      </g>
     </g>
    </g>
    <g id="xtick_2">
     <g id="line2d_2">
      <g>
       <use xlink:href="#m91ab744c8d" x="281.196903" y="296.957969" style="stroke: #000000; stroke-width: 2"/>
      </g>
     </g>
     <g id="text_2">
      <!-- L1 -->
      <g transform="translate(271.866122 314.595781) scale(0.14 -0.14)">
       <defs>
        <path id="DejaVuSans-Bold-31" d="M 750 831 
L 1813 831 
L 1813 3847 
L 722 3622 
L 722 4441 
L 1806 4666 
L 2950 4666 
L 2950 831 
L 4013 831 
L 4013 0 
L 750 0 
L 750 831 
z
" transform="scale(0.015625)"/>
       </defs>
       <use xlink:href="#DejaVuSans-Bold-4c"/>
       <use xlink:href="#DejaVuSans-Bold-31" transform="translate(63.720703 0)"/>
      </g>
     </g>
    </g>
    <g id="text_3">
     <!-- Layer -->
     <g transform="translate(187.569687 330.531719) scale(0.12 -0.12)">
      <defs>
       <path id="DejaVuSans-Bold-61" d="M 2106 1575 
Q 1756 1575 1579 1456 
Q 1403 1338 1403 1106 
Q 1403 894 1545 773 
Q 1688 653 1941 653 
Q 2256 653 2472 879 
Q 2688 1106 2688 1447 
L 2688 1575 
L 2106 1575 
z
M 3816 1997 
L 3816 0 
L 2688 0 
L 2688 519 
Q 2463 200 2181 54 
Q 1900 -91 1497 -91 
Q 953 -91 614 226 
Q 275 544 275 1050 
Q 275 1666 698 1953 
Q 1122 2241 2028 2241 
L 2688 2241 
L 2688 2328 
Q 2688 2594 2478 2717 
Q 2269 2841 1825 2841 
Q 1466 2841 1156 2769 
Q 847 2697 581 2553 
L 581 3406 
Q 941 3494 1303 3539 
Q 1666 3584 2028 3584 
Q 2975 3584 3395 3211 
Q 3816 2838 3816 1997 
z
" transform="scale(0.015625)"/>
       <path id="DejaVuSans-Bold-79" d="M 78 3500 
L 1197 3500 
L 2138 1125 
L 2938 3500 
L 4056 3500 
L 2584 -331 
Q 2363 -916 2067 -1148 
Q 1772 -1381 1288 -1381 
L 641 -1381 
L 641 -647 
L 991 -647 
Q 1275 -647 1404 -556 
Q 1534 -466 1606 -231 
L 1638 -134 
L 78 3500 
z
" transform="scale(0.015625)"/>
       <path id="DejaVuSans-Bold-65" d="M 4031 1759 
L 4031 1441 
L 1416 1441 
Q 1456 1047 1700 850 
Q 1944 653 2381 653 
Q 2734 653 3104 758 
Q 3475 863 3866 1075 
L 3866 213 
Q 3469 63 3072 -14 
Q 2675 -91 2278 -91 
Q 1328 -91 801 392 
Q 275 875 275 1747 
Q 275 2603 792 3093 
Q 1309 3584 2216 3584 
Q 3041 3584 3536 3087 
Q 4031 2591 4031 1759 
z
M 2881 2131 
Q 2881 2450 2695 2645 
Q 2509 2841 2209 2841 
Q 1884 2841 1681 2658 
Q 1478 2475 1428 2131 
L 2881 2131 
z
" transform="scale(0.015625)"/>
       <path id="DejaVuSans-Bold-72" d="M 3138 2547 
Q 2991 2616 2845 2648 
Q 2700 2681 2553 2681 
Q 2122 2681 1889 2404 
Q 1656 2128 1656 1613 
L 1656 0 
L 538 0 
L 538 3500 
L 1656 3500 
L 1656 2925 
Q 1872 3269 2151 3426 
Q 2431 3584 2822 3584 
Q 2878 3584 2943 3579 
Q 3009 3575 3134 3559 
L 3138 2547 
z
" transform="scale(0.015625)"/>
      </defs>
      <use xlink:href="#DejaVuSans-Bold-4c"/>
      <use xlink:href="#DejaVuSans-Bold-61" transform="translate(63.720703 0)"/>
      <use xlink:href="#DejaVuSans-Bold-79" transform="translate(128.076172 0)"/>
      <use xlink:href="#DejaVuSans-Bold-65" transform="translate(193.261719 0)"/>
      <use xlink:href="#DejaVuSans-Bold-72" transform="translate(261.083984 0)"/>
     </g>
    </g>
   </g>
   <g id="matplotlib.axis_2">
    <g id="ytick_1">
     <g id="line2d_3">
      <path d="M 74.189063 296.957969 
L 338.199062 296.957969 
" clip-path="url(#p9e308c7b60)" style="fill: none; stroke: #b0b0b0; stroke-opacity: 0.3; stroke-width: 1.5; stroke-linecap: square"/>
     </g>
     <g id="line2d_4">
      <defs>
       <path id="m54684cef38" d="M 0 0 
L -3.5 0 
" style="stroke: #000000; stroke-width: 2"/>
      </defs>
      <g>
       <use xlink:href="#m54684cef38" x="74.189063" y="296.957969" style="stroke: #000000; stroke-width: 2"/>
      </g>
     </g>
     <g id="text_4">
      <!-- 0.000 -->
      <g transform="translate(22.9075 302.276875) scale(0.14 -0.14)">
       <defs>
        <path id="DejaVuSans-Bold-2e" d="M 653 1209 
L 1778 1209 
L 1778 0 
L 653 0 
L 653 1209 
z
" transform="scale(0.015625)"/>
       </defs>
       <use xlink:href="#DejaVuSans-Bold-30"/>
       <use xlink:href="#DejaVuSans-Bold-2e" transform="translate(69.580078 0)"/>
       <use xlink:href="#DejaVuSans-Bold-30" transform="translate(107.568359 0)"/>
       <use xlink:href="#DejaVuSans-Bold-30" transform="translate(177.148438 0)"/>
       <use xlink:href="#DejaVuSans-Bold-30" transform="translate(246.728516 0)"/>
      </g>
     </g>
    </g>
    <g id="ytick_2">
     <g id="line2d_5">
      <path d="M 74.189063 251.123556 
L 338.199062 251.123556 
" clip-path="url(#p9e308c7b60)" style="fill: none; stroke: #b0b0b0; stroke-opacity: 0.3; stroke-width: 1.5; stroke-linecap: square"/>
     </g>
     <g id="line2d_6">
      <g>
       <use xlink:href="#m54684cef38" x="74.189063" y="251.123556" style="stroke: #000000; stroke-width: 2"/>
      </g>
     </g>
     <g id="text_5">
      <!-- 0.005 -->
      <g transform="translate(22.9075 256.442463) scale(0.14 -0.14)">
       <defs>
        <path id="DejaVuSans-Bold-35" d="M 678 4666 
L 3669 4666 
L 3669 3781 
L 1638 3781 
L 1638 3059 
Q 1775 3097 1914 3117 
Q 2053 3138 2203 3138 
Q 3056 3138 3531 2711 
Q 4006 2284 4006 1522 
Q 4006 766 3489 337 
Q 2972 -91 2053 -91 
Q 1656 -91 1267 -14 
Q 878 63 494 219 
L 494 1166 
Q 875 947 1217 837 
Q 1559 728 1863 728 
Q 2300 728 2551 942 
Q 2803 1156 2803 1522 
Q 2803 1891 2551 2103 
Q 2300 2316 1863 2316 
Q 1603 2316 1309 2248 
Q 1016 2181 678 2041 
L 678 4666 
z
" transform="scale(0.015625)"/>
       </defs>
       <use xlink:href="#DejaVuSans-Bold-30"/>
       <use xlink:href="#DejaVuSans-Bold-2e" transform="translate(69.580078 0)"/>
       <use xlink:href="#DejaVuSans-Bold-30" transform="translate(107.568359 0)"/>
       <use xlink:href="#DejaVuSans-Bold-30" transform="translate(177.148438 0)"/>
       <use xlink:href="#DejaVuSans-Bold-35" transform="translate(246.728516 0)"/>
      </g>
     </g>
    </g>
    <g id="ytick_3">
     <g id="line2d_7">
      <path d="M 74.189063 205.289144 
L 338.199062 205.289144 
" clip-path="url(#p9e308c7b60)" style="fill: none; stroke: #b0b0b0; stroke-opacity: 0.3; stroke-width: 1.5; stroke-linecap: square"/>
     </g>
     <g id="line2d_8">
      <g>
       <use xlink:href="#m54684cef38" x="74.189063" y="205.289144" style="stroke: #000000; stroke-width: 2"/>
      </g>
     </g>
     <g id="text_6">
      <!-- 0.010 -->
      <g transform="translate(22.9075 210.60805) scale(0.14 -0.14)">
       <use xlink:href="#DejaVuSans-Bold-30"/>
       <use xlink:href="#DejaVuSans-Bold-2e" transform="translate(69.580078 0)"/>
       <use xlink:href="#DejaVuSans-Bold-30" transform="translate(107.568359 0)"/>
       <use xlink:href="#DejaVuSans-Bold-31" transform="translate(177.148438 0)"/>
       <use xlink:href="#DejaVuSans-Bold-30" transform="translate(246.728516 0)"/>
      </g>
     </g>
    </g>
    <g id="ytick_4">
     <g id="line2d_9">
      <path d="M 74.189063 159.454731 
L 338.199062 159.454731 
" clip-path="url(#p9e308c7b60)" style="fill: none; stroke: #b0b0b0; stroke-opacity: 0.3; stroke-width: 1.5; stroke-linecap: square"/>
     </g>
     <g id="line2d_10">
      <g>
       <use xlink:href="#m54684cef38" x="74.189063" y="159.454731" style="stroke: #000000; stroke-width: 2"/>
      </g>
     </g>
     <g id="text_7">
      <!-- 0.015 -->
      <g transform="translate(22.9075 164.773638) scale(0.14 -0.14)">
       <use xlink:href="#DejaVuSans-Bold-30"/>
       <use xlink:href="#DejaVuSans-Bold-2e" transform="translate(69.580078 0)"/>
       <use xlink:href="#DejaVuSans-Bold-30" transform="translate(107.568359 0)"/>
       <use xlink:href="#DejaVuSans-Bold-31" transform="translate(177.148438 0)"/>
       <use xlink:href="#DejaVuSans-Bold-35" transform="translate(246.728516 0)"/>
      </g>
     </g>
    </g>
    <g id="ytick_5">
     <g id="line2d_11">
      <path d="M 74.189063 113.620319 
L 338.199062 113.620319 
" clip-path="url(#p9e308c7b60)" style="fill: none; stroke: #b0b0b0; stroke-opacity: 0.3; stroke-width: 1.5; stroke-linecap: square"/>
     </g>
     <g id="line2d_12">
      <g>
       <use xlink:href="#m54684cef38" x="74.189063" y="113.620319" style="stroke: #000000; stroke-width: 2"/>
      </g>
     </g>
     <g id="text_8">
      <!-- 0.020 -->
      <g transform="translate(22.9075 118.939225) scale(0.14 -0.14)">
       <defs>
        <path id="DejaVuSans-Bold-32" d="M 1844 884 
L 3897 884 
L 3897 0 
L 506 0 
L 506 884 
L 2209 2388 
Q 2438 2594 2547 2791 
Q 2656 2988 2656 3200 
Q 2656 3528 2436 3728 
Q 2216 3928 1850 3928 
Q 1569 3928 1234 3808 
Q 900 3688 519 3450 
L 519 4475 
Q 925 4609 1322 4679 
Q 1719 4750 2100 4750 
Q 2938 4750 3402 4381 
Q 3866 4013 3866 3353 
Q 3866 2972 3669 2642 
Q 3472 2313 2841 1759 
L 1844 884 
z
" transform="scale(0.015625)"/>
       </defs>
       <use xlink:href="#DejaVuSans-Bold-30"/>
       <use xlink:href="#DejaVuSans-Bold-2e" transform="translate(69.580078 0)"/>
       <use xlink:href="#DejaVuSans-Bold-30" transform="translate(107.568359 0)"/>
       <use xlink:href="#DejaVuSans-Bold-32" transform="translate(177.148438 0)"/>
       <use xlink:href="#DejaVuSans-Bold-30" transform="translate(246.728516 0)"/>
      </g>
     </g>
    </g>
    <g id="ytick_6">
     <g id="line2d_13">
      <path d="M 74.189063 67.785906 
L 338.199062 67.785906 
" clip-path="url(#p9e308c7b60)" style="fill: none; stroke: #b0b0b0; stroke-opacity: 0.3; stroke-width: 1.5; stroke-linecap: square"/>
     </g>
     <g id="line2d_14">
      <g>
       <use xlink:href="#m54684cef38" x="74.189063" y="67.785906" style="stroke: #000000; stroke-width: 2"/>
      </g>
     </g>
     <g id="text_9">
      <!-- 0.025 -->
      <g transform="translate(22.9075 73.104813) scale(0.14 -0.14)">
       <use xlink:href="#DejaVuSans-Bold-30"/>
       <use xlink:href="#DejaVuSans-Bold-2e" transform="translate(69.580078 0)"/>
       <use xlink:href="#DejaVuSans-Bold-30" transform="translate(107.568359 0)"/>
       <use xlink:href="#DejaVuSans-Bold-32" transform="translate(177.148438 0)"/>
       <use xlink:href="#DejaVuSans-Bold-35" transform="translate(246.728516 0)"/>
      </g>
     </g>
    </g>
    <g id="text_10">
     <!-- Δ (Bond Length Distortion) -->
     <g transform="translate(16.318125 251.146719) rotate(-90) scale(0.12 -0.12)">
      <defs>
       <path id="DejaVuSans-Bold-394" d="M 4922 0 
L 31 0 
L 1759 4666 
L 3194 4666 
L 4922 0 
z
M 1559 909 
L 3384 909 
L 2478 3572 
L 1559 909 
z
" transform="scale(0.015625)"/>
       <path id="DejaVuSans-Bold-20" transform="scale(0.015625)"/>
       <path id="DejaVuSans-Bold-28" d="M 2413 -844 
L 1484 -844 
Q 1006 -72 778 623 
Q 550 1319 550 2003 
Q 550 2688 779 3389 
Q 1009 4091 1484 4856 
L 2413 4856 
Q 2013 4116 1813 3408 
Q 1613 2700 1613 2009 
Q 1613 1319 1811 609 
Q 2009 -100 2413 -844 
z
" transform="scale(0.015625)"/>
       <path id="DejaVuSans-Bold-42" d="M 2456 2859 
Q 2741 2859 2887 2984 
Q 3034 3109 3034 3353 
Q 3034 3594 2887 3720 
Q 2741 3847 2456 3847 
L 1791 3847 
L 1791 2859 
L 2456 2859 
z
M 2497 819 
Q 2859 819 3042 972 
Q 3225 1125 3225 1434 
Q 3225 1738 3044 1889 
Q 2863 2041 2497 2041 
L 1791 2041 
L 1791 819 
L 2497 819 
z
M 3616 2497 
Q 4003 2384 4215 2081 
Q 4428 1778 4428 1338 
Q 4428 663 3972 331 
Q 3516 0 2584 0 
L 588 0 
L 588 4666 
L 2394 4666 
Q 3366 4666 3802 4372 
Q 4238 4078 4238 3431 
Q 4238 3091 4078 2852 
Q 3919 2613 3616 2497 
z
" transform="scale(0.015625)"/>
       <path id="DejaVuSans-Bold-6f" d="M 2203 2784 
Q 1831 2784 1636 2517 
Q 1441 2250 1441 1747 
Q 1441 1244 1636 976 
Q 1831 709 2203 709 
Q 2569 709 2762 976 
Q 2956 1244 2956 1747 
Q 2956 2250 2762 2517 
Q 2569 2784 2203 2784 
z
M 2203 3584 
Q 3106 3584 3614 3096 
Q 4122 2609 4122 1747 
Q 4122 884 3614 396 
Q 3106 -91 2203 -91 
Q 1297 -91 786 396 
Q 275 884 275 1747 
Q 275 2609 786 3096 
Q 1297 3584 2203 3584 
z
" transform="scale(0.015625)"/>
       <path id="DejaVuSans-Bold-6e" d="M 4056 2131 
L 4056 0 
L 2931 0 
L 2931 347 
L 2931 1631 
Q 2931 2084 2911 2256 
Q 2891 2428 2841 2509 
Q 2775 2619 2662 2680 
Q 2550 2741 2406 2741 
Q 2056 2741 1856 2470 
Q 1656 2200 1656 1722 
L 1656 0 
L 538 0 
L 538 3500 
L 1656 3500 
L 1656 2988 
Q 1909 3294 2193 3439 
Q 2478 3584 2822 3584 
Q 3428 3584 3742 3212 
Q 4056 2841 4056 2131 
z
" transform="scale(0.015625)"/>
       <path id="DejaVuSans-Bold-64" d="M 2919 2988 
L 2919 4863 
L 4044 4863 
L 4044 0 
L 2919 0 
L 2919 506 
Q 2688 197 2409 53 
Q 2131 -91 1766 -91 
Q 1119 -91 703 423 
Q 288 938 288 1747 
Q 288 2556 703 3070 
Q 1119 3584 1766 3584 
Q 2128 3584 2408 3439 
Q 2688 3294 2919 2988 
z
M 2181 722 
Q 2541 722 2730 984 
Q 2919 1247 2919 1747 
Q 2919 2247 2730 2509 
Q 2541 2772 2181 2772 
Q 1825 2772 1636 2509 
Q 1447 2247 1447 1747 
Q 1447 1247 1636 984 
Q 1825 722 2181 722 
z
" transform="scale(0.015625)"/>
       <path id="DejaVuSans-Bold-67" d="M 2919 594 
Q 2688 288 2409 144 
Q 2131 0 1766 0 
Q 1125 0 706 504 
Q 288 1009 288 1791 
Q 288 2575 706 3076 
Q 1125 3578 1766 3578 
Q 2131 3578 2409 3434 
Q 2688 3291 2919 2981 
L 2919 3500 
L 4044 3500 
L 4044 353 
Q 4044 -491 3511 -936 
Q 2978 -1381 1966 -1381 
Q 1638 -1381 1331 -1331 
Q 1025 -1281 716 -1178 
L 716 -306 
Q 1009 -475 1290 -558 
Q 1572 -641 1856 -641 
Q 2406 -641 2662 -400 
Q 2919 -159 2919 353 
L 2919 594 
z
M 2181 2772 
Q 1834 2772 1640 2515 
Q 1447 2259 1447 1791 
Q 1447 1309 1634 1061 
Q 1822 813 2181 813 
Q 2531 813 2725 1069 
Q 2919 1325 2919 1791 
Q 2919 2259 2725 2515 
Q 2531 2772 2181 2772 
z
" transform="scale(0.015625)"/>
       <path id="DejaVuSans-Bold-74" d="M 1759 4494 
L 1759 3500 
L 2913 3500 
L 2913 2700 
L 1759 2700 
L 1759 1216 
Q 1759 972 1856 886 
Q 1953 800 2241 800 
L 2816 800 
L 2816 0 
L 1856 0 
Q 1194 0 917 276 
Q 641 553 641 1216 
L 641 2700 
L 84 2700 
L 84 3500 
L 641 3500 
L 641 4494 
L 1759 4494 
z
" transform="scale(0.015625)"/>
       <path id="DejaVuSans-Bold-68" d="M 4056 2131 
L 4056 0 
L 2931 0 
L 2931 347 
L 2931 1625 
Q 2931 2084 2911 2256 
Q 2891 2428 2841 2509 
Q 2775 2619 2662 2680 
Q 2550 2741 2406 2741 
Q 2056 2741 1856 2470 
Q 1656 2200 1656 1722 
L 1656 0 
L 538 0 
L 538 4863 
L 1656 4863 
L 1656 2988 
Q 1909 3294 2193 3439 
Q 2478 3584 2822 3584 
Q 3428 3584 3742 3212 
Q 4056 2841 4056 2131 
z
" transform="scale(0.015625)"/>
       <path id="DejaVuSans-Bold-44" d="M 1791 3756 
L 1791 909 
L 2222 909 
Q 2959 909 3348 1275 
Q 3738 1641 3738 2338 
Q 3738 3031 3350 3393 
Q 2963 3756 2222 3756 
L 1791 3756 
z
M 588 4666 
L 1856 4666 
Q 2919 4666 3439 4514 
Q 3959 4363 4331 4000 
Q 4659 3684 4818 3271 
Q 4978 2859 4978 2338 
Q 4978 1809 4818 1395 
Q 4659 981 4331 666 
Q 3956 303 3431 151 
Q 2906 0 1856 0 
L 588 0 
L 588 4666 
z
" transform="scale(0.015625)"/>
       <path id="DejaVuSans-Bold-69" d="M 538 3500 
L 1656 3500 
L 1656 0 
L 538 0 
L 538 3500 
z
M 538 4863 
L 1656 4863 
L 1656 3950 
L 538 3950 
L 538 4863 
z
" transform="scale(0.015625)"/>
       <path id="DejaVuSans-Bold-73" d="M 3272 3391 
L 3272 2541 
Q 2913 2691 2578 2766 
Q 2244 2841 1947 2841 
Q 1628 2841 1473 2761 
Q 1319 2681 1319 2516 
Q 1319 2381 1436 2309 
Q 1553 2238 1856 2203 
L 2053 2175 
Q 2913 2066 3209 1816 
Q 3506 1566 3506 1031 
Q 3506 472 3093 190 
Q 2681 -91 1863 -91 
Q 1516 -91 1145 -36 
Q 775 19 384 128 
L 384 978 
Q 719 816 1070 734 
Q 1422 653 1784 653 
Q 2113 653 2278 743 
Q 2444 834 2444 1013 
Q 2444 1163 2330 1236 
Q 2216 1309 1875 1350 
L 1678 1375 
Q 931 1469 631 1722 
Q 331 1975 331 2491 
Q 331 3047 712 3315 
Q 1094 3584 1881 3584 
Q 2191 3584 2531 3537 
Q 2872 3491 3272 3391 
z
" transform="scale(0.015625)"/>
       <path id="DejaVuSans-Bold-29" d="M 513 -844 
Q 913 -100 1113 609 
Q 1313 1319 1313 2009 
Q 1313 2700 1113 3408 
Q 913 4116 513 4856 
L 1441 4856 
Q 1916 4091 2145 3389 
Q 2375 2688 2375 2003 
Q 2375 1319 2147 623 
Q 1919 -72 1441 -844 
L 513 -844 
z
" transform="scale(0.015625)"/>
      </defs>
      <use xlink:href="#DejaVuSans-Bold-394"/>
      <use xlink:href="#DejaVuSans-Bold-20" transform="translate(77.392578 0)"/>
      <use xlink:href="#DejaVuSans-Bold-28" transform="translate(112.207031 0)"/>
      <use xlink:href="#DejaVuSans-Bold-42" transform="translate(157.910156 0)"/>
      <use xlink:href="#DejaVuSans-Bold-6f" transform="translate(234.130859 0)"/>
      <use xlink:href="#DejaVuSans-Bold-6e" transform="translate(302.832031 0)"/>
      <use xlink:href="#DejaVuSans-Bold-64" transform="translate(374.023438 0)"/>
      <use xlink:href="#DejaVuSans-Bold-20" transform="translate(445.605469 0)"/>
      <use xlink:href="#DejaVuSans-Bold-4c" transform="translate(480.419922 0)"/>
      <use xlink:href="#DejaVuSans-Bold-65" transform="translate(544.140625 0)"/>
      <use xlink:href="#DejaVuSans-Bold-6e" transform="translate(611.962891 0)"/>
      <use xlink:href="#DejaVuSans-Bold-67" transform="translate(683.154297 0)"/>
      <use xlink:href="#DejaVuSans-Bold-74" transform="translate(754.736328 0)"/>
      <use xlink:href="#DejaVuSans-Bold-68" transform="translate(802.539062 0)"/>
      <use xlink:href="#DejaVuSans-Bold-20" transform="translate(873.730469 0)"/>
      <use xlink:href="#DejaVuSans-Bold-44" transform="translate(908.544922 0)"/>
      <use xlink:href="#DejaVuSans-Bold-69" transform="translate(991.552734 0)"/>
      <use xlink:href="#DejaVuSans-Bold-73" transform="translate(1025.830078 0)"/>
      <use xlink:href="#DejaVuSans-Bold-74" transform="translate(1085.351562 0)"/>
      <use xlink:href="#DejaVuSans-Bold-6f" transform="translate(1133.154297 0)"/>
      <use xlink:href="#DejaVuSans-Bold-72" transform="translate(1201.855469 0)"/>
      <use xlink:href="#DejaVuSans-Bold-74" transform="translate(1251.171875 0)"/>
      <use xlink:href="#DejaVuSans-Bold-69" transform="translate(1298.974609 0)"/>
      <use xlink:href="#DejaVuSans-Bold-6f" transform="translate(1333.251953 0)"/>
      <use xlink:href="#DejaVuSans-Bold-6e" transform="translate(1401.953125 0)"/>
      <use xlink:href="#DejaVuSans-Bold-29" transform="translate(1473.144531 0)"/>
     </g>
    </g>
   </g>
   <g id="patch_5">
    <path d="M 74.189063 296.957969 
L 74.189063 23.077969 
" style="fill: none; stroke: #000000; stroke-width: 2; stroke-linejoin: miter; stroke-linecap: square"/>
   </g>
   <g id="patch_6">
    <path d="M 338.199062 296.957969 
L 338.199062 23.077969 
" style="fill: none; stroke: #000000; stroke-width: 2; stroke-linejoin: miter; stroke-linecap: square"/>
   </g>
   <g id="patch_7">
    <path d="M 74.189063 296.957969 
L 338.199062 296.957969 
" style="fill: none; stroke: #000000; stroke-width: 2; stroke-linejoin: miter; stroke-linecap: square"/>
   </g>
   <g id="patch_8">
    <path d="M 74.189063 23.077969 
L 338.199062 23.077969 
" style="fill: none; stroke: #000000; stroke-width: 2; stroke-linejoin: miter; stroke-linecap: square"/>
   </g>
   <g id="text_11">
    <!-- Delta by Layer -->
    <g transform="translate(153.075859 17.077969) scale(0.13 -0.13)">
     <defs>
      <path id="DejaVuSans-Bold-6c" d="M 538 4863 
L 1656 4863 
L 1656 0 
L 538 0 
L 538 4863 
z
" transform="scale(0.015625)"/>
      <path id="DejaVuSans-Bold-62" d="M 2400 722 
Q 2759 722 2948 984 
Q 3138 1247 3138 1747 
Q 3138 2247 2948 2509 
Q 2759 2772 2400 2772 
Q 2041 2772 1848 2508 
Q 1656 2244 1656 1747 
Q 1656 1250 1848 986 
Q 2041 722 2400 722 
z
M 1656 2988 
Q 1888 3294 2169 3439 
Q 2450 3584 2816 3584 
Q 3463 3584 3878 3070 
Q 4294 2556 4294 1747 
Q 4294 938 3878 423 
Q 3463 -91 2816 -91 
Q 2450 -91 2169 54 
Q 1888 200 1656 506 
L 1656 0 
L 538 0 
L 538 4863 
L 1656 4863 
L 1656 2988 
z
" transform="scale(0.015625)"/>
     </defs>
     <use xlink:href="#DejaVuSans-Bold-44"/>
     <use xlink:href="#DejaVuSans-Bold-65" transform="translate(83.007812 0)"/>
     <use xlink:href="#DejaVuSans-Bold-6c" transform="translate(150.830078 0)"/>
     <use xlink:href="#DejaVuSans-Bold-74" transform="translate(185.107422 0)"/>
     <use xlink:href="#DejaVuSans-Bold-61" transform="translate(232.910156 0)"/>
     <use xlink:href="#DejaVuSans-Bold-20" transform="translate(300.390625 0)"/>
     <use xlink:href="#DejaVuSans-Bold-62" transform="translate(335.205078 0)"/>
     <use xlink:href="#DejaVuSans-Bold-79" transform="translate(406.787109 0)"/>
     <use xlink:href="#DejaVuSans-Bold-20" transform="translate(471.972656 0)"/>
     <use xlink:href="#DejaVuSans-Bold-4c" transform="translate(506.787109 0)"/>
     <use xlink:href="#DejaVuSans-Bold-61" transform="translate(570.507812 0)"/>
     <use xlink:href="#DejaVuSans-Bold-79" transform="translate(634.863281 0)"/>
     <use xlink:href="#DejaVuSans-Bold-65" transform="translate(700.048828 0)"/>
     <use xlink:href="#DejaVuSans-Bold-72" transform="translate(767.871094 0)"/>
    </g>
   </g>
  </g>
  <g id="axes_2">
   <g id="patch_9">
    <path d="M 431.909063 296.957969 
L 695.919063 296.957969 
L 695.919063 23.077969 
L 431.909063 23.077969 
z
" style="fill: #ffffff"/>
   </g>
   <g id="patch_10">
    <path d="M 443.909517 296.957969 
L 533.912926 296.957969 
L 533.912926 60.148844 
L 443.909517 60.148844 
z
" clip-path="url(#p0783796511)" style="fill: #50fa7b; opacity: 0.7; stroke: #000000; stroke-linejoin: miter"/>
   </g>
   <g id="patch_11">
    <path d="M 593.915199 296.957969 
L 683.918608 296.957969 
L 683.918608 36.119874 
L 593.915199 36.119874 
z
" clip-path="url(#p0783796511)" style="fill: #50fa7b; opacity: 0.7; stroke: #000000; stroke-linejoin: miter"/>
   </g>
   <g id="matplotlib.axis_3">
    <g id="xtick_3">
     <g id="line2d_15">
      <g>
       <use xlink:href="#m91ab744c8d" x="488.911222" y="296.957969" style="stroke: #000000; stroke-width: 2"/>
      </g>
     </g>
     <g id="text_12">
      <!-- L0 -->
      <g transform="translate(479.58044 314.595781) scale(0.14 -0.14)">
       <use xlink:href="#DejaVuSans-Bold-4c"/>
       <use xlink:href="#DejaVuSans-Bold-30" transform="translate(63.720703 0)"/>
      </g>
     </g>
    </g>
    <g id="xtick_4">
     <g id="line2d_16">
      <g>
       <use xlink:href="#m91ab744c8d" x="638.916903" y="296.957969" style="stroke: #000000; stroke-width: 2"/>
      </g>
     </g>
     <g id="text_13">
      <!-- L1 -->
      <g transform="translate(629.586122 314.595781) scale(0.14 -0.14)">
       <use xlink:href="#DejaVuSans-Bold-4c"/>
       <use xlink:href="#DejaVuSans-Bold-31" transform="translate(63.720703 0)"/>
      </g>
     </g>
    </g>
    <g id="text_14">
     <!-- Layer -->
     <g transform="translate(545.289688 330.531719) scale(0.12 -0.12)">
      <use xlink:href="#DejaVuSans-Bold-4c"/>
      <use xlink:href="#DejaVuSans-Bold-61" transform="translate(63.720703 0)"/>
      <use xlink:href="#DejaVuSans-Bold-79" transform="translate(128.076172 0)"/>
      <use xlink:href="#DejaVuSans-Bold-65" transform="translate(193.261719 0)"/>
      <use xlink:href="#DejaVuSans-Bold-72" transform="translate(261.083984 0)"/>
     </g>
    </g>
   </g>
   <g id="matplotlib.axis_4">
    <g id="ytick_7">
     <g id="line2d_17">
      <path d="M 431.909063 296.957969 
L 695.919063 296.957969 
" clip-path="url(#p0783796511)" style="fill: none; stroke: #b0b0b0; stroke-opacity: 0.3; stroke-width: 1.5; stroke-linecap: square"/>
     </g>
     <g id="line2d_18">
      <g>
       <use xlink:href="#m54684cef38" x="431.909063" y="296.957969" style="stroke: #000000; stroke-width: 2"/>
      </g>
     </g>
     <g id="text_15">
      <!-- 0.0000 -->
      <g transform="translate(370.886562 302.276875) scale(0.14 -0.14)">
       <use xlink:href="#DejaVuSans-Bold-30"/>
       <use xlink:href="#DejaVuSans-Bold-2e" transform="translate(69.580078 0)"/>
       <use xlink:href="#DejaVuSans-Bold-30" transform="translate(107.568359 0)"/>
       <use xlink:href="#DejaVuSans-Bold-30" transform="translate(177.148438 0)"/>
       <use xlink:href="#DejaVuSans-Bold-30" transform="translate(246.728516 0)"/>
       <use xlink:href="#DejaVuSans-Bold-30" transform="translate(316.308594 0)"/>
      </g>
     </g>
    </g>
    <g id="ytick_8">
     <g id="line2d_19">
      <path d="M 431.909063 265.343142 
L 695.919063 265.343142 
" clip-path="url(#p0783796511)" style="fill: none; stroke: #b0b0b0; stroke-opacity: 0.3; stroke-width: 1.5; stroke-linecap: square"/>
     </g>
     <g id="line2d_20">
      <g>
       <use xlink:href="#m54684cef38" x="431.909063" y="265.343142" style="stroke: #000000; stroke-width: 2"/>
      </g>
     </g>
     <g id="text_16">
      <!-- 0.0001 -->
      <g transform="translate(370.886562 270.662048) scale(0.14 -0.14)">
       <use xlink:href="#DejaVuSans-Bold-30"/>
       <use xlink:href="#DejaVuSans-Bold-2e" transform="translate(69.580078 0)"/>
       <use xlink:href="#DejaVuSans-Bold-30" transform="translate(107.568359 0)"/>
       <use xlink:href="#DejaVuSans-Bold-30" transform="translate(177.148438 0)"/>
       <use xlink:href="#DejaVuSans-Bold-30" transform="translate(246.728516 0)"/>
       <use xlink:href="#DejaVuSans-Bold-31" transform="translate(316.308594 0)"/>
      </g>
     </g>
    </g>
    <g id="ytick_9">
     <g id="line2d_21">
      <path d="M 431.909063 233.728315 
L 695.919063 233.728315 
" clip-path="url(#p0783796511)" style="fill: none; stroke: #b0b0b0; stroke-opacity: 0.3; stroke-width: 1.5; stroke-linecap: square"/>
     </g>
     <g id="line2d_22">
      <g>
       <use xlink:href="#m54684cef38" x="431.909063" y="233.728315" style="stroke: #000000; stroke-width: 2"/>
      </g>
     </g>
     <g id="text_17">
      <!-- 0.0002 -->
      <g transform="translate(370.886562 239.047221) scale(0.14 -0.14)">
       <use xlink:href="#DejaVuSans-Bold-30"/>
       <use xlink:href="#DejaVuSans-Bold-2e" transform="translate(69.580078 0)"/>
       <use xlink:href="#DejaVuSans-Bold-30" transform="translate(107.568359 0)"/>
       <use xlink:href="#DejaVuSans-Bold-30" transform="translate(177.148438 0)"/>
       <use xlink:href="#DejaVuSans-Bold-30" transform="translate(246.728516 0)"/>
       <use xlink:href="#DejaVuSans-Bold-32" transform="translate(316.308594 0)"/>
      </g>
     </g>
    </g>
    <g id="ytick_10">
     <g id="line2d_23">
      <path d="M 431.909063 202.113488 
L 695.919063 202.113488 
" clip-path="url(#p0783796511)" style="fill: none; stroke: #b0b0b0; stroke-opacity: 0.3; stroke-width: 1.5; stroke-linecap: square"/>
     </g>
     <g id="line2d_24">
      <g>
       <use xlink:href="#m54684cef38" x="431.909063" y="202.113488" style="stroke: #000000; stroke-width: 2"/>
      </g>
     </g>
     <g id="text_18">
      <!-- 0.0003 -->
      <g transform="translate(370.886562 207.432394) scale(0.14 -0.14)">
       <defs>
        <path id="DejaVuSans-Bold-33" d="M 2981 2516 
Q 3453 2394 3698 2092 
Q 3944 1791 3944 1325 
Q 3944 631 3412 270 
Q 2881 -91 1863 -91 
Q 1503 -91 1142 -33 
Q 781 25 428 141 
L 428 1069 
Q 766 900 1098 814 
Q 1431 728 1753 728 
Q 2231 728 2486 893 
Q 2741 1059 2741 1369 
Q 2741 1688 2480 1852 
Q 2219 2016 1709 2016 
L 1228 2016 
L 1228 2791 
L 1734 2791 
Q 2188 2791 2409 2933 
Q 2631 3075 2631 3366 
Q 2631 3634 2415 3781 
Q 2200 3928 1806 3928 
Q 1516 3928 1219 3862 
Q 922 3797 628 3669 
L 628 4550 
Q 984 4650 1334 4700 
Q 1684 4750 2022 4750 
Q 2931 4750 3382 4451 
Q 3834 4153 3834 3553 
Q 3834 3144 3618 2883 
Q 3403 2622 2981 2516 
z
" transform="scale(0.015625)"/>
       </defs>
       <use xlink:href="#DejaVuSans-Bold-30"/>
       <use xlink:href="#DejaVuSans-Bold-2e" transform="translate(69.580078 0)"/>
       <use xlink:href="#DejaVuSans-Bold-30" transform="translate(107.568359 0)"/>
       <use xlink:href="#DejaVuSans-Bold-30" transform="translate(177.148438 0)"/>
       <use xlink:href="#DejaVuSans-Bold-30" transform="translate(246.728516 0)"/>
       <use xlink:href="#DejaVuSans-Bold-33" transform="translate(316.308594 0)"/>
      </g>
     </g>
    </g>
    <g id="ytick_11">
     <g id="line2d_25">
      <path d="M 431.909063 170.498661 
L 695.919063 170.498661 
" clip-path="url(#p0783796511)" style="fill: none; stroke: #b0b0b0; stroke-opacity: 0.3; stroke-width: 1.5; stroke-linecap: square"/>
     </g>
     <g id="line2d_26">
      <g>
       <use xlink:href="#m54684cef38" x="431.909063" y="170.498661" style="stroke: #000000; stroke-width: 2"/>
      </g>
     </g>
     <g id="text_19">
      <!-- 0.0004 -->
      <g transform="translate(370.886562 175.817567) scale(0.14 -0.14)">
       <defs>
        <path id="DejaVuSans-Bold-34" d="M 2356 3675 
L 1038 1722 
L 2356 1722 
L 2356 3675 
z
M 2156 4666 
L 3494 4666 
L 3494 1722 
L 4159 1722 
L 4159 850 
L 3494 850 
L 3494 0 
L 2356 0 
L 2356 850 
L 288 850 
L 288 1881 
L 2156 4666 
z
" transform="scale(0.015625)"/>
       </defs>
       <use xlink:href="#DejaVuSans-Bold-30"/>
       <use xlink:href="#DejaVuSans-Bold-2e" transform="translate(69.580078 0)"/>
       <use xlink:href="#DejaVuSans-Bold-30" transform="translate(107.568359 0)"/>
       <use xlink:href="#DejaVuSans-Bold-30" transform="translate(177.148438 0)"/>
       <use xlink:href="#DejaVuSans-Bold-30" transform="translate(246.728516 0)"/>
       <use xlink:href="#DejaVuSans-Bold-34" transform="translate(316.308594 0)"/>
      </g>
     </g>
    </g>
    <g id="ytick_12">
     <g id="line2d_27">
      <path d="M 431.909063 138.883834 
L 695.919063 138.883834 
" clip-path="url(#p0783796511)" style="fill: none; stroke: #b0b0b0; stroke-opacity: 0.3; stroke-width: 1.5; stroke-linecap: square"/>
     </g>
     <g id="line2d_28">
      <g>
       <use xlink:href="#m54684cef38" x="431.909063" y="138.883834" style="stroke: #000000; stroke-width: 2"/>
      </g>
     </g>
     <g id="text_20">
      <!-- 0.0005 -->
      <g transform="translate(370.886562 144.20274) scale(0.14 -0.14)">
       <use xlink:href="#DejaVuSans-Bold-30"/>
       <use xlink:href="#DejaVuSans-Bold-2e" transform="translate(69.580078 0)"/>
       <use xlink:href="#DejaVuSans-Bold-30" transform="translate(107.568359 0)"/>
       <use xlink:href="#DejaVuSans-Bold-30" transform="translate(177.148438 0)"/>
       <use xlink:href="#DejaVuSans-Bold-30" transform="translate(246.728516 0)"/>
       <use xlink:href="#DejaVuSans-Bold-35" transform="translate(316.308594 0)"/>
      </g>
     </g>
    </g>
    <g id="ytick_13">
     <g id="line2d_29">
      <path d="M 431.909063 107.269007 
L 695.919063 107.269007 
" clip-path="url(#p0783796511)" style="fill: none; stroke: #b0b0b0; stroke-opacity: 0.3; stroke-width: 1.5; stroke-linecap: square"/>
     </g>
     <g id="line2d_30">
      <g>
       <use xlink:href="#m54684cef38" x="431.909063" y="107.269007" style="stroke: #000000; stroke-width: 2"/>
      </g>
     </g>
     <g id="text_21">
      <!-- 0.0006 -->
      <g transform="translate(370.886562 112.587913) scale(0.14 -0.14)">
       <defs>
        <path id="DejaVuSans-Bold-36" d="M 2316 2303 
Q 2000 2303 1842 2098 
Q 1684 1894 1684 1484 
Q 1684 1075 1842 870 
Q 2000 666 2316 666 
Q 2634 666 2792 870 
Q 2950 1075 2950 1484 
Q 2950 1894 2792 2098 
Q 2634 2303 2316 2303 
z
M 3803 4544 
L 3803 3681 
Q 3506 3822 3243 3889 
Q 2981 3956 2731 3956 
Q 2194 3956 1894 3657 
Q 1594 3359 1544 2772 
Q 1750 2925 1990 3001 
Q 2231 3078 2516 3078 
Q 3231 3078 3670 2659 
Q 4109 2241 4109 1563 
Q 4109 813 3618 361 
Q 3128 -91 2303 -91 
Q 1394 -91 895 523 
Q 397 1138 397 2266 
Q 397 3422 980 4083 
Q 1563 4744 2578 4744 
Q 2900 4744 3203 4694 
Q 3506 4644 3803 4544 
z
" transform="scale(0.015625)"/>
       </defs>
       <use xlink:href="#DejaVuSans-Bold-30"/>
       <use xlink:href="#DejaVuSans-Bold-2e" transform="translate(69.580078 0)"/>
       <use xlink:href="#DejaVuSans-Bold-30" transform="translate(107.568359 0)"/>
       <use xlink:href="#DejaVuSans-Bold-30" transform="translate(177.148438 0)"/>
       <use xlink:href="#DejaVuSans-Bold-30" transform="translate(246.728516 0)"/>
       <use xlink:href="#DejaVuSans-Bold-36" transform="translate(316.308594 0)"/>
      </g>
     </g>
    </g>
    <g id="ytick_14">
     <g id="line2d_31">
      <path d="M 431.909063 75.654179 
L 695.919063 75.654179 
" clip-path="url(#p0783796511)" style="fill: none; stroke: #b0b0b0; stroke-opacity: 0.3; stroke-width: 1.5; stroke-linecap: square"/>
     </g>
     <g id="line2d_32">
      <g>
       <use xlink:href="#m54684cef38" x="431.909063" y="75.654179" style="stroke: #000000; stroke-width: 2"/>
      </g>
     </g>
     <g id="text_22">
      <!-- 0.0007 -->
      <g transform="translate(370.886562 80.973086) scale(0.14 -0.14)">
       <defs>
        <path id="DejaVuSans-Bold-37" d="M 428 4666 
L 3944 4666 
L 3944 3988 
L 2125 0 
L 953 0 
L 2675 3781 
L 428 3781 
L 428 4666 
z
" transform="scale(0.015625)"/>
       </defs>
       <use xlink:href="#DejaVuSans-Bold-30"/>
       <use xlink:href="#DejaVuSans-Bold-2e" transform="translate(69.580078 0)"/>
       <use xlink:href="#DejaVuSans-Bold-30" transform="translate(107.568359 0)"/>
       <use xlink:href="#DejaVuSans-Bold-30" transform="translate(177.148438 0)"/>
       <use xlink:href="#DejaVuSans-Bold-30" transform="translate(246.728516 0)"/>
       <use xlink:href="#DejaVuSans-Bold-37" transform="translate(316.308594 0)"/>
      </g>
     </g>
    </g>
    <g id="ytick_15">
     <g id="line2d_33">
      <path d="M 431.909063 44.039352 
L 695.919063 44.039352 
" clip-path="url(#p0783796511)" style="fill: none; stroke: #b0b0b0; stroke-opacity: 0.3; stroke-width: 1.5; stroke-linecap: square"/>
     </g>
     <g id="line2d_34">
      <g>
       <use xlink:href="#m54684cef38" x="431.909063" y="44.039352" style="stroke: #000000; stroke-width: 2"/>
      </g>
     </g>
     <g id="text_23">
      <!-- 0.0008 -->
      <g transform="translate(370.886562 49.358259) scale(0.14 -0.14)">
       <defs>
        <path id="DejaVuSans-Bold-38" d="M 2228 2088 
Q 1891 2088 1709 1903 
Q 1528 1719 1528 1375 
Q 1528 1031 1709 848 
Q 1891 666 2228 666 
Q 2563 666 2741 848 
Q 2919 1031 2919 1375 
Q 2919 1722 2741 1905 
Q 2563 2088 2228 2088 
z
M 1350 2484 
Q 925 2613 709 2878 
Q 494 3144 494 3541 
Q 494 4131 934 4440 
Q 1375 4750 2228 4750 
Q 3075 4750 3515 4442 
Q 3956 4134 3956 3541 
Q 3956 3144 3739 2878 
Q 3522 2613 3097 2484 
Q 3572 2353 3814 2058 
Q 4056 1763 4056 1313 
Q 4056 619 3595 264 
Q 3134 -91 2228 -91 
Q 1319 -91 855 264 
Q 391 619 391 1313 
Q 391 1763 633 2058 
Q 875 2353 1350 2484 
z
M 1631 3419 
Q 1631 3141 1786 2991 
Q 1941 2841 2228 2841 
Q 2509 2841 2662 2991 
Q 2816 3141 2816 3419 
Q 2816 3697 2662 3845 
Q 2509 3994 2228 3994 
Q 1941 3994 1786 3844 
Q 1631 3694 1631 3419 
z
" transform="scale(0.015625)"/>
       </defs>
       <use xlink:href="#DejaVuSans-Bold-30"/>
       <use xlink:href="#DejaVuSans-Bold-2e" transform="translate(69.580078 0)"/>
       <use xlink:href="#DejaVuSans-Bold-30" transform="translate(107.568359 0)"/>
       <use xlink:href="#DejaVuSans-Bold-30" transform="translate(177.148438 0)"/>
       <use xlink:href="#DejaVuSans-Bold-30" transform="translate(246.728516 0)"/>
       <use xlink:href="#DejaVuSans-Bold-38" transform="translate(316.308594 0)"/>
      </g>
     </g>
    </g>
    <g id="text_24">
     <!-- σ² (Bond Length Variance) -->
     <g transform="translate(364.297187 249.252969) rotate(-90) scale(0.12 -0.12)">
      <defs>
       <path id="DejaVuSans-Bold-3c3" d="M 2200 2784 
Q 1831 2784 1636 2517 
Q 1441 2250 1441 1747 
Q 1441 1244 1636 976 
Q 1831 709 2200 709 
Q 2569 709 2762 976 
Q 2956 1244 2956 1747 
Q 2956 2250 2762 2517 
Q 2569 2784 2200 2784 
z
M 4650 2700 
L 3916 2700 
Q 4122 2291 4122 1747 
Q 4122 884 3614 396 
Q 3106 -91 2203 -91 
Q 1297 -91 786 396 
Q 275 884 275 1747 
Q 275 2609 788 3097 
Q 1209 3500 2203 3500 
L 4650 3500 
L 4650 2700 
z
" transform="scale(0.015625)"/>
       <path id="DejaVuSans-Bold-b2" d="M 1288 2613 
L 2444 2613 
L 2444 2088 
L 341 2088 
L 341 2566 
L 1319 3397 
Q 1509 3563 1590 3688 
Q 1672 3813 1672 3938 
Q 1672 4094 1558 4191 
Q 1444 4288 1259 4288 
Q 1066 4288 844 4217 
Q 622 4147 359 4000 
L 359 4581 
Q 631 4666 886 4708 
Q 1141 4750 1375 4750 
Q 1869 4750 2150 4548 
Q 2431 4347 2431 4000 
Q 2431 3775 2320 3586 
Q 2209 3397 1894 3128 
L 1288 2613 
z
" transform="scale(0.015625)"/>
       <path id="DejaVuSans-Bold-56" d="M 31 4666 
L 1241 4666 
L 2478 1222 
L 3713 4666 
L 4922 4666 
L 3194 0 
L 1759 0 
L 31 4666 
z
" transform="scale(0.015625)"/>
       <path id="DejaVuSans-Bold-63" d="M 3366 3391 
L 3366 2478 
Q 3138 2634 2908 2709 
Q 2678 2784 2431 2784 
Q 1963 2784 1702 2511 
Q 1441 2238 1441 1747 
Q 1441 1256 1702 982 
Q 1963 709 2431 709 
Q 2694 709 2930 787 
Q 3166 866 3366 1019 
L 3366 103 
Q 3103 6 2833 -42 
Q 2563 -91 2291 -91 
Q 1344 -91 809 395 
Q 275 881 275 1747 
Q 275 2613 809 3098 
Q 1344 3584 2291 3584 
Q 2566 3584 2833 3536 
Q 3100 3488 3366 3391 
z
" transform="scale(0.015625)"/>
      </defs>
      <use xlink:href="#DejaVuSans-Bold-3c3"/>
      <use xlink:href="#DejaVuSans-Bold-b2" transform="translate(77.880859 0)"/>
      <use xlink:href="#DejaVuSans-Bold-20" transform="translate(121.679688 0)"/>
      <use xlink:href="#DejaVuSans-Bold-28" transform="translate(156.494141 0)"/>
      <use xlink:href="#DejaVuSans-Bold-42" transform="translate(202.197266 0)"/>
      <use xlink:href="#DejaVuSans-Bold-6f" transform="translate(278.417969 0)"/>
      <use xlink:href="#DejaVuSans-Bold-6e" transform="translate(347.119141 0)"/>
      <use xlink:href="#DejaVuSans-Bold-64" transform="translate(418.310547 0)"/>
      <use xlink:href="#DejaVuSans-Bold-20" transform="translate(489.892578 0)"/>
      <use xlink:href="#DejaVuSans-Bold-4c" transform="translate(524.707031 0)"/>
      <use xlink:href="#DejaVuSans-Bold-65" transform="translate(588.427734 0)"/>
      <use xlink:href="#DejaVuSans-Bold-6e" transform="translate(656.25 0)"/>
      <use xlink:href="#DejaVuSans-Bold-67" transform="translate(727.441406 0)"/>
      <use xlink:href="#DejaVuSans-Bold-74" transform="translate(799.023438 0)"/>
      <use xlink:href="#DejaVuSans-Bold-68" transform="translate(846.826172 0)"/>
      <use xlink:href="#DejaVuSans-Bold-20" transform="translate(918.017578 0)"/>
      <use xlink:href="#DejaVuSans-Bold-56" transform="translate(952.832031 0)"/>
      <use xlink:href="#DejaVuSans-Bold-61" transform="translate(1024.724609 0)"/>
      <use xlink:href="#DejaVuSans-Bold-72" transform="translate(1092.205078 0)"/>
      <use xlink:href="#DejaVuSans-Bold-69" transform="translate(1141.521484 0)"/>
      <use xlink:href="#DejaVuSans-Bold-61" transform="translate(1175.798828 0)"/>
      <use xlink:href="#DejaVuSans-Bold-6e" transform="translate(1243.279297 0)"/>
      <use xlink:href="#DejaVuSans-Bold-63" transform="translate(1314.470703 0)"/>
      <use xlink:href="#DejaVuSans-Bold-65" transform="translate(1373.748047 0)"/>
      <use xlink:href="#DejaVuSans-Bold-29" transform="translate(1441.570312 0)"/>
     </g>
    </g>
   </g>
   <g id="patch_12">
    <path d="M 431.909063 296.957969 
L 431.909063 23.077969 
" style="fill: none; stroke: #000000; stroke-width: 2; stroke-linejoin: miter; stroke-linecap: square"/>
   </g>
   <g id="patch_13">
    <path d="M 695.919063 296.957969 
L 695.919063 23.077969 
" style="fill: none; stroke: #000000; stroke-width: 2; stroke-linejoin: miter; stroke-linecap: square"/>
   </g>
   <g id="patch_14">
    <path d="M 431.909063 296.957969 
L 695.919063 296.957969 
" style="fill: none; stroke: #000000; stroke-width: 2; stroke-linejoin: miter; stroke-linecap: square"/>
   </g>
   <g id="patch_15">
    <path d="M 431.909063 23.077969 
L 695.919063 23.077969 
" style="fill: none; stroke: #000000; stroke-width: 2; stroke-linejoin: miter; stroke-linecap: square"/>
   </g>
   <g id="text_25">
    <!-- Sigma by Layer -->
    <g transform="translate(507.600703 17.077969) scale(0.13 -0.13)">
     <defs>
      <path id="DejaVuSans-Bold-53" d="M 3834 4519 
L 3834 3531 
Q 3450 3703 3084 3790 
Q 2719 3878 2394 3878 
Q 1963 3878 1756 3759 
Q 1550 3641 1550 3391 
Q 1550 3203 1689 3098 
Q 1828 2994 2194 2919 
L 2706 2816 
Q 3484 2659 3812 2340 
Q 4141 2022 4141 1434 
Q 4141 663 3683 286 
Q 3225 -91 2284 -91 
Q 1841 -91 1394 -6 
Q 947 78 500 244 
L 500 1259 
Q 947 1022 1364 901 
Q 1781 781 2169 781 
Q 2563 781 2772 912 
Q 2981 1044 2981 1288 
Q 2981 1506 2839 1625 
Q 2697 1744 2272 1838 
L 1806 1941 
Q 1106 2091 782 2419 
Q 459 2747 459 3303 
Q 459 4000 909 4375 
Q 1359 4750 2203 4750 
Q 2588 4750 2994 4692 
Q 3400 4634 3834 4519 
z
" transform="scale(0.015625)"/>
      <path id="DejaVuSans-Bold-6d" d="M 3781 2919 
Q 3994 3244 4286 3414 
Q 4578 3584 4928 3584 
Q 5531 3584 5847 3212 
Q 6163 2841 6163 2131 
L 6163 0 
L 5038 0 
L 5038 1825 
Q 5041 1866 5042 1909 
Q 5044 1953 5044 2034 
Q 5044 2406 4934 2573 
Q 4825 2741 4581 2741 
Q 4263 2741 4089 2478 
Q 3916 2216 3909 1719 
L 3909 0 
L 2784 0 
L 2784 1825 
Q 2784 2406 2684 2573 
Q 2584 2741 2328 2741 
Q 2006 2741 1831 2477 
Q 1656 2213 1656 1722 
L 1656 0 
L 531 0 
L 531 3500 
L 1656 3500 
L 1656 2988 
Q 1863 3284 2130 3434 
Q 2397 3584 2719 3584 
Q 3081 3584 3359 3409 
Q 3638 3234 3781 2919 
z
" transform="scale(0.015625)"/>
     </defs>
     <use xlink:href="#DejaVuSans-Bold-53"/>
     <use xlink:href="#DejaVuSans-Bold-69" transform="translate(72.021484 0)"/>
     <use xlink:href="#DejaVuSans-Bold-67" transform="translate(106.298828 0)"/>
     <use xlink:href="#DejaVuSans-Bold-6d" transform="translate(177.880859 0)"/>
     <use xlink:href="#DejaVuSans-Bold-61" transform="translate(282.080078 0)"/>
     <use xlink:href="#DejaVuSans-Bold-20" transform="translate(349.560547 0)"/>
     <use xlink:href="#DejaVuSans-Bold-62" transform="translate(384.375 0)"/>
     <use xlink:href="#DejaVuSans-Bold-79" transform="translate(455.957031 0)"/>
     <use xlink:href="#DejaVuSans-Bold-20" transform="translate(521.142578 0)"/>
     <use xlink:href="#DejaVuSans-Bold-4c" transform="translate(555.957031 0)"/>
     <use xlink:href="#DejaVuSans-Bold-61" transform="translate(619.677734 0)"/>
     <use xlink:href="#DejaVuSans-Bold-79" transform="translate(684.033203 0)"/>
     <use xlink:href="#DejaVuSans-Bold-65" transform="translate(749.21875 0)"/>
     <use xlink:href="#DejaVuSans-Bold-72" transform="translate(817.041016 0)"/>
    </g>
   </g>
  </g>
  <g id="axes_3">
   <g id="patch_16">
    <path d="M 789.629062 296.957969 
L 1053.639063 296.957969 
L 1053.639063 23.077969 
L 789.629062 23.077969 
z
" style="fill: #ffffff"/>
   </g>
   <g id="patch_17">
    <path d="M 801.629517 296.957969 
L 891.632926 296.957969 
L 891.632926 153.419073 
L 801.629517 153.419073 
z
" clip-path="url(#p4a9647d8ba)" style="fill: #bd93f9; opacity: 0.7; stroke: #000000; stroke-linejoin: miter"/>
   </g>
   <g id="patch_18">
    <path d="M 951.635199 296.957969 
L 1041.638608 296.957969 
L 1041.638608 36.119874 
L 951.635199 36.119874 
z
" clip-path="url(#p4a9647d8ba)" style="fill: #bd93f9; opacity: 0.7; stroke: #000000; stroke-linejoin: miter"/>
   </g>
   <g id="matplotlib.axis_5">
    <g id="xtick_5">
     <g id="line2d_35">
      <g>
       <use xlink:href="#m91ab744c8d" x="846.631222" y="296.957969" style="stroke: #000000; stroke-width: 2"/>
      </g>
     </g>
     <g id="text_26">
      <!-- L0 -->
      <g transform="translate(837.30044 314.595781) scale(0.14 -0.14)">
       <use xlink:href="#DejaVuSans-Bold-4c"/>
       <use xlink:href="#DejaVuSans-Bold-30" transform="translate(63.720703 0)"/>
      </g>
     </g>
    </g>
    <g id="xtick_6">
     <g id="line2d_36">
      <g>
       <use xlink:href="#m91ab744c8d" x="996.636903" y="296.957969" style="stroke: #000000; stroke-width: 2"/>
      </g>
     </g>
     <g id="text_27">
      <!-- L1 -->
      <g transform="translate(987.306122 314.595781) scale(0.14 -0.14)">
       <use xlink:href="#DejaVuSans-Bold-4c"/>
       <use xlink:href="#DejaVuSans-Bold-31" transform="translate(63.720703 0)"/>
      </g>
     </g>
    </g>
    <g id="text_28">
     <!-- Layer -->
     <g transform="translate(903.009688 330.531719) scale(0.12 -0.12)">
      <use xlink:href="#DejaVuSans-Bold-4c"/>
      <use xlink:href="#DejaVuSans-Bold-61" transform="translate(63.720703 0)"/>
      <use xlink:href="#DejaVuSans-Bold-79" transform="translate(128.076172 0)"/>
      <use xlink:href="#DejaVuSans-Bold-65" transform="translate(193.261719 0)"/>
      <use xlink:href="#DejaVuSans-Bold-72" transform="translate(261.083984 0)"/>
     </g>
    </g>
   </g>
   <g id="matplotlib.axis_6">
    <g id="ytick_16">
     <g id="line2d_37">
      <path d="M 789.629062 296.957969 
L 1053.639063 296.957969 
" clip-path="url(#p4a9647d8ba)" style="fill: none; stroke: #b0b0b0; stroke-opacity: 0.3; stroke-width: 1.5; stroke-linecap: square"/>
     </g>
     <g id="line2d_38">
      <g>
       <use xlink:href="#m54684cef38" x="789.629062" y="296.957969" style="stroke: #000000; stroke-width: 2"/>
      </g>
     </g>
     <g id="text_29">
      <!-- 0.0 -->
      <g transform="translate(757.829375 302.276875) scale(0.14 -0.14)">
       <use xlink:href="#DejaVuSans-Bold-30"/>
       <use xlink:href="#DejaVuSans-Bold-2e" transform="translate(69.580078 0)"/>
       <use xlink:href="#DejaVuSans-Bold-30" transform="translate(107.568359 0)"/>
      </g>
     </g>
    </g>
    <g id="ytick_17">
     <g id="line2d_39">
      <path d="M 789.629062 246.523187 
L 1053.639063 246.523187 
" clip-path="url(#p4a9647d8ba)" style="fill: none; stroke: #b0b0b0; stroke-opacity: 0.3; stroke-width: 1.5; stroke-linecap: square"/>
     </g>
     <g id="line2d_40">
      <g>
       <use xlink:href="#m54684cef38" x="789.629062" y="246.523187" style="stroke: #000000; stroke-width: 2"/>
      </g>
     </g>
     <g id="text_30">
      <!-- 0.5 -->
      <g transform="translate(757.829375 251.842093) scale(0.14 -0.14)">
       <use xlink:href="#DejaVuSans-Bold-30"/>
       <use xlink:href="#DejaVuSans-Bold-2e" transform="translate(69.580078 0)"/>
       <use xlink:href="#DejaVuSans-Bold-35" transform="translate(107.568359 0)"/>
      </g>
     </g>
    </g>
    <g id="ytick_18">
     <g id="line2d_41">
      <path d="M 789.629062 196.088405 
L 1053.639063 196.088405 
" clip-path="url(#p4a9647d8ba)" style="fill: none; stroke: #b0b0b0; stroke-opacity: 0.3; stroke-width: 1.5; stroke-linecap: square"/>
     </g>
     <g id="line2d_42">
      <g>
       <use xlink:href="#m54684cef38" x="789.629062" y="196.088405" style="stroke: #000000; stroke-width: 2"/>
      </g>
     </g>
     <g id="text_31">
      <!-- 1.0 -->
      <g transform="translate(757.829375 201.407311) scale(0.14 -0.14)">
       <use xlink:href="#DejaVuSans-Bold-31"/>
       <use xlink:href="#DejaVuSans-Bold-2e" transform="translate(69.580078 0)"/>
       <use xlink:href="#DejaVuSans-Bold-30" transform="translate(107.568359 0)"/>
      </g>
     </g>
    </g>
    <g id="ytick_19">
     <g id="line2d_43">
      <path d="M 789.629062 145.653623 
L 1053.639063 145.653623 
" clip-path="url(#p4a9647d8ba)" style="fill: none; stroke: #b0b0b0; stroke-opacity: 0.3; stroke-width: 1.5; stroke-linecap: square"/>
     </g>
     <g id="line2d_44">
      <g>
       <use xlink:href="#m54684cef38" x="789.629062" y="145.653623" style="stroke: #000000; stroke-width: 2"/>
      </g>
     </g>
     <g id="text_32">
      <!-- 1.5 -->
      <g transform="translate(757.829375 150.972529) scale(0.14 -0.14)">
       <use xlink:href="#DejaVuSans-Bold-31"/>
       <use xlink:href="#DejaVuSans-Bold-2e" transform="translate(69.580078 0)"/>
       <use xlink:href="#DejaVuSans-Bold-35" transform="translate(107.568359 0)"/>
      </g>
     </g>
    </g>
    <g id="ytick_20">
     <g id="line2d_45">
      <path d="M 789.629062 95.218841 
L 1053.639063 95.218841 
" clip-path="url(#p4a9647d8ba)" style="fill: none; stroke: #b0b0b0; stroke-opacity: 0.3; stroke-width: 1.5; stroke-linecap: square"/>
     </g>
     <g id="line2d_46">
      <g>
       <use xlink:href="#m54684cef38" x="789.629062" y="95.218841" style="stroke: #000000; stroke-width: 2"/>
      </g>
     </g>
     <g id="text_33">
      <!-- 2.0 -->
      <g transform="translate(757.829375 100.537747) scale(0.14 -0.14)">
       <use xlink:href="#DejaVuSans-Bold-32"/>
       <use xlink:href="#DejaVuSans-Bold-2e" transform="translate(69.580078 0)"/>
       <use xlink:href="#DejaVuSans-Bold-30" transform="translate(107.568359 0)"/>
      </g>
     </g>
    </g>
    <g id="ytick_21">
     <g id="line2d_47">
      <path d="M 789.629062 44.784059 
L 1053.639063 44.784059 
" clip-path="url(#p4a9647d8ba)" style="fill: none; stroke: #b0b0b0; stroke-opacity: 0.3; stroke-width: 1.5; stroke-linecap: square"/>
     </g>
     <g id="line2d_48">
      <g>
       <use xlink:href="#m54684cef38" x="789.629062" y="44.784059" style="stroke: #000000; stroke-width: 2"/>
      </g>
     </g>
     <g id="text_34">
      <!-- 2.5 -->
      <g transform="translate(757.829375 50.102965) scale(0.14 -0.14)">
       <use xlink:href="#DejaVuSans-Bold-32"/>
       <use xlink:href="#DejaVuSans-Bold-2e" transform="translate(69.580078 0)"/>
       <use xlink:href="#DejaVuSans-Bold-35" transform="translate(107.568359 0)"/>
      </g>
     </g>
    </g>
    <g id="text_35">
     <!-- λ² (Bond Angle Variance) -->
     <g transform="translate(751.24 244.115469) rotate(-90) scale(0.12 -0.12)">
      <defs>
       <path id="DejaVuSans-Bold-3bb" d="M 1544 3188 
L 1350 3713 
Q 1263 3953 1145 4040 
Q 1028 4128 734 4128 
L 384 4128 
L 384 4863 
L 1031 4863 
Q 1600 4863 1908 4622 
Q 2216 4381 2428 3813 
L 3859 0 
L 2741 0 
L 2044 1838 
L 1309 0 
L 191 0 
L 1544 3188 
z
" transform="scale(0.015625)"/>
       <path id="DejaVuSans-Bold-41" d="M 3419 850 
L 1538 850 
L 1241 0 
L 31 0 
L 1759 4666 
L 3194 4666 
L 4922 0 
L 3713 0 
L 3419 850 
z
M 1838 1716 
L 3116 1716 
L 2478 3572 
L 1838 1716 
z
" transform="scale(0.015625)"/>
      </defs>
      <use xlink:href="#DejaVuSans-Bold-3bb"/>
      <use xlink:href="#DejaVuSans-Bold-b2" transform="translate(63.28125 0)"/>
      <use xlink:href="#DejaVuSans-Bold-20" transform="translate(107.080078 0)"/>
      <use xlink:href="#DejaVuSans-Bold-28" transform="translate(141.894531 0)"/>
      <use xlink:href="#DejaVuSans-Bold-42" transform="translate(187.597656 0)"/>
      <use xlink:href="#DejaVuSans-Bold-6f" transform="translate(263.818359 0)"/>
      <use xlink:href="#DejaVuSans-Bold-6e" transform="translate(332.519531 0)"/>
      <use xlink:href="#DejaVuSans-Bold-64" transform="translate(403.710938 0)"/>
      <use xlink:href="#DejaVuSans-Bold-20" transform="translate(475.292969 0)"/>
      <use xlink:href="#DejaVuSans-Bold-41" transform="translate(510.107422 0)"/>
      <use xlink:href="#DejaVuSans-Bold-6e" transform="translate(587.5 0)"/>
      <use xlink:href="#DejaVuSans-Bold-67" transform="translate(658.691406 0)"/>
      <use xlink:href="#DejaVuSans-Bold-6c" transform="translate(730.273438 0)"/>
      <use xlink:href="#DejaVuSans-Bold-65" transform="translate(764.550781 0)"/>
      <use xlink:href="#DejaVuSans-Bold-20" transform="translate(832.373047 0)"/>
      <use xlink:href="#DejaVuSans-Bold-56" transform="translate(867.1875 0)"/>
      <use xlink:href="#DejaVuSans-Bold-61" transform="translate(939.080078 0)"/>
      <use xlink:href="#DejaVuSans-Bold-72" transform="translate(1006.560547 0)"/>
      <use xlink:href="#DejaVuSans-Bold-69" transform="translate(1055.876953 0)"/>
      <use xlink:href="#DejaVuSans-Bold-61" transform="translate(1090.154297 0)"/>
      <use xlink:href="#DejaVuSans-Bold-6e" transform="translate(1157.634766 0)"/>
      <use xlink:href="#DejaVuSans-Bold-63" transform="translate(1228.826172 0)"/>
      <use xlink:href="#DejaVuSans-Bold-65" transform="translate(1288.103516 0)"/>
      <use xlink:href="#DejaVuSans-Bold-29" transform="translate(1355.925781 0)"/>
     </g>
    </g>
   </g>
   <g id="patch_19">
    <path d="M 789.629062 296.957969 
L 789.629062 23.077969 
" style="fill: none; stroke: #000000; stroke-width: 2; stroke-linejoin: miter; stroke-linecap: square"/>
   </g>
   <g id="patch_20">
    <path d="M 1053.639063 296.957969 
L 1053.639063 23.077969 
" style="fill: none; stroke: #000000; stroke-width: 2; stroke-linejoin: miter; stroke-linecap: square"/>
   </g>
   <g id="patch_21">
    <path d="M 789.629062 296.957969 
L 1053.639063 296.957969 
" style="fill: none; stroke: #000000; stroke-width: 2; stroke-linejoin: miter; stroke-linecap: square"/>
   </g>
   <g id="patch_22">
    <path d="M 789.629062 23.077969 
L 1053.639063 23.077969 
" style="fill: none; stroke: #000000; stroke-width: 2; stroke-linejoin: miter; stroke-linecap: square"/>
   </g>
   <g id="text_36">
    <!-- Lambda by Layer -->
    <g transform="translate(859.049219 17.077969) scale(0.13 -0.13)">
     <use xlink:href="#DejaVuSans-Bold-4c"/>
     <use xlink:href="#DejaVuSans-Bold-61" transform="translate(63.720703 0)"/>
     <use xlink:href="#DejaVuSans-Bold-6d" transform="translate(131.201172 0)"/>
     <use xlink:href="#DejaVuSans-Bold-62" transform="translate(235.400391 0)"/>
     <use xlink:href="#DejaVuSans-Bold-64" transform="translate(306.982422 0)"/>
     <use xlink:href="#DejaVuSans-Bold-61" transform="translate(378.564453 0)"/>
     <use xlink:href="#DejaVuSans-Bold-20" transform="translate(446.044922 0)"/>
     <use xlink:href="#DejaVuSans-Bold-62" transform="translate(480.859375 0)"/>
     <use xlink:href="#DejaVuSans-Bold-79" transform="translate(552.441406 0)"/>
     <use xlink:href="#DejaVuSans-Bold-20" transform="translate(617.626953 0)"/>
     <use xlink:href="#DejaVuSans-Bold-4c" transform="translate(652.441406 0)"/>
     <use xlink:href="#DejaVuSans-Bold-61" transform="translate(716.162109 0)"/>
     <use xlink:href="#DejaVuSans-Bold-79" transform="translate(780.517578 0)"/>
     <use xlink:href="#DejaVuSans-Bold-65" transform="translate(845.703125 0)"/>
     <use xlink:href="#DejaVuSans-Bold-72" transform="translate(913.525391 0)"/>
    </g>
   </g>
  </g>
 </g>
 <defs>
  <clipPath id="p9e308c7b60">
   <rect x="74.189063" y="23.077969" width="264.01" height="273.88"/>
  </clipPath>
  <clipPath id="p0783796511">
   <rect x="431.909063" y="23.077969" width="264.01" height="273.88"/>
  </clipPath>
  <clipPath id="p4a9647d8ba">
   <rect x="789.629062" y="23.077969" width="264.01" height="273.88"/>
  </clipPath>
 </defs>
</svg>
